# xmcd
#
# Track frame offsets: 
#        150
#        36694
#        53676
#        83512
#        107043
#        119722
#        154595
#        172727
#        190453
#        210524
#
# Disc length: 3259 seconds
#
# Revision: 0
# Processed by: cddbd v1.5.2PL0 Copyright (c) Steve Scherf et al.
# Submitted via: ExactAudioCopy v1.3
#
DISCID=810cb90a
DTITLE=Billy Branch and The Sons Of Blues - As The Years Go Passing By
DYEAR=1985
DGENRE=Chicago Blues
TTITLE0=I'm Going Fishing Baby
TTITLE1=You Have Stayed Away Too Long
TTITLE2=The Band Ladies Have The Blues
TTITLE3=In My Lonely Room
TTITLE4=Baby Can I Make You Change Your Mind
TTITLE5=As The Years Go Pasing By
TTITLE6=I Haven't Been Too Long
TTITLE7=Rock Me Baby
TTITLE8=In The Ghetto
TTITLE9=Fours
EXTD=
EXTT0=
EXTT1=
EXTT2=
EXTT3=
EXTT4=
EXTT5=
EXTT6=
EXTT7=
EXTT8=
EXTT9=
PLAYORDER=
